# xmcd CD database file
#
# Track frame offsets:
#	150
#	13286
#	30380
#	42516
#	57317
#	68959
#	77979
#	93259
#	106933
#	117302
#	130360
#	143851
#
# Disc length: 2107 seconds
#
# Revision: 0
# Processed by: cddbd v1.5.2PL0 Copyright (c) Steve Scherf et al.
# Submitted via: CDex 1.51
#
DISCID=a808390c
DTITLE=Lloyd Green and Jay Dee Maness - Journey To The Beginning - A Steel Guitar Tribute To The Byrds
DYEAR=2018
DGENRE=Country
TTITLE0=You Ain't Goin' Nowhere
TTITLE1=I Am a Pilgrim
TTITLE2=The Christian Life
TTITLE3=You Don't Miss Your Water
TTITLE4=You're Still On My Mind
TTITLE5=Pretty Boy Floyd
TTITLE6=Hickory Wind
TTITLE7=One Hundred Years From Now
TTITLE8=Blue Canadian Rockies
TTITLE9=Life in Prison
TTITLE10=Nothing Was Delivered
TTITLE11=You Ain't Goin' Nowhere (vocal)
EXTD=YEAR: 2018
EXTT0=
EXTT1=
EXTT2=
EXTT3=
EXTT4=
EXTT5=
EXTT6=
EXTT7=
EXTT8=
EXTT9=
EXTT10=
EXTT11=
PLAYORDER=
